<?xml version="1.0" ?><svg fill="none" height="24" viewBox="0 0 24 24" width="24" xmlns="http://www.w3.org/2000/svg"><path clip-rule="evenodd" d="M12.5951 4.50716C12.8673 4.19494 13.3411 4.16249 13.6533 4.43468L19.4929 9.52559C19.7286 9.73108 19.812 10.0613 19.7023 10.3541C19.5926 10.6469 19.3127 10.8409 19 10.8409H5C4.58579 10.8409 4.25 10.5051 4.25 10.0909C4.25 9.67671 4.58579 9.34092 5 9.34092H16.9984L12.6676 5.56534C12.3554 5.29315 12.3229 4.81938 12.5951 4.50716Z" fill="black" fill-rule="evenodd"/><path clip-rule="evenodd" d="M11.4049 19.4928C11.1327 19.8051 10.6589 19.8375 10.3467 19.5653L4.50715 14.4744C4.27144 14.2689 4.18796 13.9387 4.29768 13.6459C4.40741 13.3531 4.68729 13.1591 5 13.1591L19 13.1591C19.4142 13.1591 19.75 13.4949 19.75 13.9091C19.75 14.3233 19.4142 14.6591 19 14.6591L7.00161 14.6591L11.3324 18.4347C11.6446 18.7069 11.6771 19.1806 11.4049 19.4928Z" fill="black" fill-rule="evenodd"/></svg>